<?xml version="1.0" encoding="UTF-8" standalone="no"?>
<!DOCTYPE svg PUBLIC "-//W3C//DTD SVG 1.1//EN"
 "http://www.w3.org/Graphics/SVG/1.1/DTD/svg11.dtd">
<!-- Generated by graphviz version 14.0.2 (20251019.1705)
 -->
<!-- Title: G Pages: 1 -->
<svg width="552pt" height="692pt"
 viewBox="0.00 0.00 552.00 692.00" xmlns="http://www.w3.org/2000/svg" xmlns:xlink="http://www.w3.org/1999/xlink">
<g id="graph0" class="graph" transform="scale(1 1) rotate(0) translate(4 688.48)">
<title>G</title><style>.edge>path:hover{stroke-width:8}</style>
<polygon fill="white" stroke="none" points="-4,4 -4,-688.48 548.22,-688.48 548.22,4 -4,4"/>
<!-- app -->
<g id="node1" class="node">
<title>app</title><style>.edge>path:hover{stroke-width:8}</style>
<polygon fill="blue" stroke="black" points="336.05,-361 282.05,-361 282.05,-325 336.05,-325 336.05,-361"/>
<text xml:space="preserve" text-anchor="middle" x="309.05" y="-339.5" font-family="Helvetica,sans-Serif" font-size="10.00" fill="white">app</text>
</g>
<!-- equipos_new -->
<g id="node7" class="node">
<title>equipos_new</title><style>.edge>path:hover{stroke-width:8}</style>
<polygon fill="blue" stroke="black" points="88.55,-289 15.55,-289 15.55,-253 88.55,-253 88.55,-289"/>
<text xml:space="preserve" text-anchor="middle" x="52.05" y="-267.5" font-family="Helvetica,sans-Serif" font-size="10.00" fill="white">equipos_new</text>
</g>
<!-- app&#45;&gt;equipos_new -->
<g id="edge1" class="edge">
<title>app&#45;&gt;equipos_new</title><style>.edge>path:hover{stroke-width:8}</style>
<path fill="none" stroke="black" d="M270.64,-333.81C230.14,-324.87 164.32,-309.46 99.57,-289.62"/>
<polygon fill="blue" stroke="black" points="269.67,-337.18 280.18,-335.9 271.16,-330.34 269.67,-337.18"/>
<polygon fill="blue" stroke="black" points="100.8,-286.34 90.21,-286.72 98.72,-293.02 100.8,-286.34"/>
</g>
<!-- inventario_new -->
<g id="node8" class="node">
<title>inventario_new</title><style>.edge>path:hover{stroke-width:8}</style>
<polygon fill="blue" stroke="black" points="187.67,-289 106.42,-289 106.42,-253 187.67,-253 187.67,-289"/>
<text xml:space="preserve" text-anchor="middle" x="147.05" y="-267.5" font-family="Helvetica,sans-Serif" font-size="10.00" fill="white">inventario_new</text>
</g>
<!-- app&#45;&gt;inventario_new -->
<g id="edge2" class="edge">
<title>app&#45;&gt;inventario_new</title><style>.edge>path:hover{stroke-width:8}</style>
<path fill="none" stroke="black" d="M271.31,-325.7C249.41,-316.23 221.52,-304.18 197.71,-293.89"/>
<polygon fill="blue" stroke="black" points="269.61,-328.77 280.18,-329.53 272.39,-322.35 269.61,-328.77"/>
<polygon fill="blue" stroke="black" points="199.41,-290.81 188.84,-290.06 196.63,-297.24 199.41,-290.81"/>
</g>
<!-- market -->
<g id="node9" class="node">
<title>market</title><style>.edge>path:hover{stroke-width:8}</style>
<polygon fill="blue" stroke="black" points="336.05,-289 282.05,-289 282.05,-253 336.05,-253 336.05,-289"/>
<text xml:space="preserve" text-anchor="middle" x="309.05" y="-267.5" font-family="Helvetica,sans-Serif" font-size="10.00" fill="white">market</text>
</g>
<!-- app&#45;&gt;market -->
<g id="edge3" class="edge">
<title>app&#45;&gt;market</title><style>.edge>path:hover{stroke-width:8}</style>
<path fill="none" stroke="black" d="M309.05,-313.24C309.05,-309.01 309.05,-304.66 309.05,-300.44"/>
<polygon fill="blue" stroke="black" points="305.55,-313.18 309.05,-323.18 312.55,-313.18 305.55,-313.18"/>
<polygon fill="blue" stroke="black" points="312.55,-300.62 309.05,-290.62 305.55,-300.62 312.55,-300.62"/>
</g>
<!-- marketplace_models -->
<g id="node11" class="node">
<title>marketplace_models</title><style>.edge>path:hover{stroke-width:8}</style>
<polygon fill="blue" stroke="black" points="316.17,-217 243.92,-217 243.92,-181 316.17,-181 316.17,-217"/>
<text xml:space="preserve" text-anchor="middle" x="280.05" y="-201.5" font-family="Helvetica,sans-Serif" font-size="10.00" fill="white">marketplace.</text>
<text xml:space="preserve" text-anchor="middle" x="280.05" y="-189.5" font-family="Helvetica,sans-Serif" font-size="10.00" fill="white">models</text>
</g>
<!-- app&#45;&gt;marketplace_models -->
<g id="edge4" class="edge">
<title>app&#45;&gt;marketplace_models</title><style>.edge>path:hover{stroke-width:8}</style>
<path fill="none" stroke="black" d="M293.44,-324.77C285.68,-315.03 277.1,-302.18 273.05,-289 267.02,-269.41 269.09,-246.3 272.5,-228.55"/>
<polygon fill="blue" stroke="black" points="275.88,-229.48 274.6,-218.96 269.04,-227.98 275.88,-229.48"/>
</g>
<!-- marketplace_routes -->
<g id="node12" class="node">
<title>marketplace_routes</title><style>.edge>path:hover{stroke-width:8}</style>
<polygon fill="blue" stroke="black" points="316.17,-145 243.92,-145 243.92,-109 316.17,-109 316.17,-145"/>
<text xml:space="preserve" text-anchor="middle" x="280.05" y="-129.5" font-family="Helvetica,sans-Serif" font-size="10.00" fill="white">marketplace.</text>
<text xml:space="preserve" text-anchor="middle" x="280.05" y="-117.5" font-family="Helvetica,sans-Serif" font-size="10.00" fill="white">routes</text>
</g>
<!-- app&#45;&gt;marketplace_routes -->
<g id="edge5" class="edge">
<title>app&#45;&gt;marketplace_routes</title><style>.edge>path:hover{stroke-width:8}</style>
<path fill="none" stroke="black" d="M285.14,-316.35C278.11,-308.02 270.77,-298.47 265.05,-289 247.11,-259.33 241.85,-250.99 235.05,-217 231.91,-201.31 229.53,-196.02 235.05,-181 238.68,-171.12 245.05,-161.82 251.89,-153.86"/>
<polygon fill="blue" stroke="black" points="282.36,-318.48 291.57,-323.71 287.63,-313.88 282.36,-318.48"/>
<polygon fill="blue" stroke="black" points="254.4,-156.29 258.64,-146.58 249.27,-151.53 254.4,-156.29"/>
</g>
<!-- supplier_auth -->
<g id="node14" class="node">
<title>supplier_auth</title><style>.edge>path:hover{stroke-width:8}</style>
<polygon fill="blue" stroke="black" points="503.92,-289 430.17,-289 430.17,-253 503.92,-253 503.92,-289"/>
<text xml:space="preserve" text-anchor="middle" x="467.05" y="-267.5" font-family="Helvetica,sans-Serif" font-size="10.00" fill="white">supplier_auth</text>
</g>
<!-- app&#45;&gt;supplier_auth -->
<g id="edge6" class="edge">
<title>app&#45;&gt;supplier_auth</title><style>.edge>path:hover{stroke-width:8}</style>
<path fill="none" stroke="black" d="M346.48,-325.42C368.33,-315.74 396.12,-303.43 419.5,-293.06"/>
<polygon fill="blue" stroke="black" points="345.32,-322.1 337.59,-329.35 348.15,-328.5 345.32,-322.1"/>
<polygon fill="blue" stroke="black" points="420.79,-296.32 428.52,-289.07 417.96,-289.92 420.79,-296.32"/>
</g>
<!-- supplier_portal -->
<g id="node15" class="node">
<title>supplier_portal</title><style>.edge>path:hover{stroke-width:8}</style>
<polygon fill="blue" stroke="black" points="503.55,-217 424.55,-217 424.55,-181 503.55,-181 503.55,-217"/>
<text xml:space="preserve" text-anchor="middle" x="464.05" y="-195.5" font-family="Helvetica,sans-Serif" font-size="10.00" fill="white">supplier_portal</text>
</g>
<!-- app&#45;&gt;supplier_portal -->
<g id="edge7" class="edge">
<title>app&#45;&gt;supplier_portal</title><style>.edge>path:hover{stroke-width:8}</style>
<path fill="none" stroke="black" d="M329.6,-315.7C344.74,-297.14 366.39,-272.26 388.05,-253 399.83,-242.52 413.73,-232.3 426.4,-223.67"/>
<polygon fill="blue" stroke="black" points="327.01,-313.34 323.46,-323.32 332.46,-317.73 327.01,-313.34"/>
<polygon fill="blue" stroke="black" points="428.16,-226.71 434.54,-218.24 424.27,-220.88 428.16,-226.71"/>
</g>
<!-- app_py -->
<g id="node2" class="node">
<title>app_py</title><style>.edge>path:hover{stroke-width:8}</style>
<ellipse fill="#713c3c" stroke="black" cx="280.05" cy="-18" rx="27.21" ry="18"/>
<text xml:space="preserve" text-anchor="middle" x="280.05" y="-14.5" font-family="Helvetica,sans-Serif" font-size="10.00" fill="#ffffff">app.py</text>
</g>
<!-- auth -->
<g id="node3" class="node">
<title>auth</title><style>.edge>path:hover{stroke-width:8}</style>
<ellipse fill="#a87b38" stroke="black" cx="274.05" cy="-415" rx="27" ry="18"/>
<text xml:space="preserve" text-anchor="middle" x="274.05" y="-411.5" font-family="Helvetica,sans-Serif" font-size="10.00" fill="#000000">auth</text>
</g>
<!-- auth&#45;&gt;app -->
<g id="edge8" class="edge">
<title>auth&#45;&gt;app</title><style>.edge>path:hover{stroke-width:8}</style>
<path fill="none" stroke="black" d="M282.34,-397.41C286.19,-389.71 290.88,-380.34 295.24,-371.62"/>
<polygon fill="#a87b38" stroke="black" points="298.31,-373.31 299.65,-362.8 292.05,-370.18 298.31,-373.31"/>
</g>
<!-- auth&#45;&gt;app_py -->
<g id="edge9" class="edge">
<title>auth&#45;&gt;app_py</title><style>.edge>path:hover{stroke-width:8}</style>
<path fill="none" stroke="black" d="M247.33,-411.24C190.22,-403.71 57.35,-377.06 6.05,-289 -2.01,-275.18 -2.02,-266.82 6.05,-253 30.24,-211.59 70.34,-237.65 100.05,-200"/>
<path fill="none" stroke="black" d="M280.05,-72C278.14,-64.29 277.52,-55.75 277.54,-47.82"/>
<polygon fill="#a87b38" stroke="black" points="281.03,-48.08 277.91,-37.95 274.04,-47.81 281.03,-48.08"/>
<path fill="none" stroke="black" d="M100.05,-198C103.68,-193.11 281.51,-78.91 280.05,-73"/>
</g>
<!-- authlib -->
<g id="node4" class="node">
<title>authlib</title><style>.edge>path:hover{stroke-width:8}</style>
<ellipse fill="#a2b653" stroke="black" cx="219.05" cy="-487" rx="27" ry="18"/>
<text xml:space="preserve" text-anchor="middle" x="219.05" y="-483.5" font-family="Helvetica,sans-Serif" font-size="10.00" fill="#000000">authlib</text>
</g>
<!-- authlib&#45;&gt;auth -->
<g id="edge10" class="edge">
<title>authlib&#45;&gt;auth</title><style>.edge>path:hover{stroke-width:8}</style>
<path fill="none" stroke="black" d="M231.26,-470.46C238.16,-461.67 246.96,-450.48 254.77,-440.53"/>
<polygon fill="#a2b653" stroke="black" points="257.52,-442.71 260.94,-432.68 252.01,-438.38 257.52,-442.71"/>
</g>
<!-- authlib_integrations -->
<g id="node5" class="node">
<title>authlib_integrations</title><style>.edge>path:hover{stroke-width:8}</style>
<ellipse fill="#a2b653" stroke="black" cx="199.05" cy="-563.63" rx="46.85" ry="22.63"/>
<text xml:space="preserve" text-anchor="middle" x="199.05" y="-566.13" font-family="Helvetica,sans-Serif" font-size="10.00" fill="#000000">authlib.</text>
<text xml:space="preserve" text-anchor="middle" x="199.05" y="-554.13" font-family="Helvetica,sans-Serif" font-size="10.00" fill="#000000">integrations</text>
</g>
<!-- authlib_integrations&#45;&gt;auth -->
<g id="edge11" class="edge">
<title>authlib_integrations&#45;&gt;auth</title><style>.edge>path:hover{stroke-width:8}</style>
<path fill="none" stroke="black" d="M274.05,-486C277.14,-472.63 277.51,-457.44 276.95,-444.63"/>
<polygon fill="#a2b653" stroke="black" points="280.45,-444.47 276.29,-434.73 273.46,-444.94 280.45,-444.47"/>
<path fill="none" stroke="black" d="M228.12,-545.7C246.67,-532.74 268.29,-512.87 274.05,-488"/>
</g>
<!-- authlib_integrations_flask_client -->
<g id="node6" class="node">
<title>authlib_integrations_flask_client</title><style>.edge>path:hover{stroke-width:8}</style>
<ellipse fill="#a2b653" stroke="black" cx="274.05" cy="-653.37" rx="48.97" ry="31.11"/>
<text xml:space="preserve" text-anchor="middle" x="274.05" y="-661.87" font-family="Helvetica,sans-Serif" font-size="10.00" fill="#000000">authlib.</text>
<text xml:space="preserve" text-anchor="middle" x="274.05" y="-649.87" font-family="Helvetica,sans-Serif" font-size="10.00" fill="#000000">integrations.</text>
<text xml:space="preserve" text-anchor="middle" x="274.05" y="-637.87" font-family="Helvetica,sans-Serif" font-size="10.00" fill="#000000">flask_client</text>
</g>
<!-- authlib_integrations_flask_client&#45;&gt;auth -->
<g id="edge12" class="edge">
<title>authlib_integrations_flask_client&#45;&gt;auth</title><style>.edge>path:hover{stroke-width:8}</style>
<path fill="none" stroke="black" d="M269.99,-621.91C266.48,-588.56 263.46,-533.73 274.05,-488"/>
</g>
<!-- equipos_new&#45;&gt;app_py -->
<g id="edge14" class="edge">
<title>equipos_new&#45;&gt;app_py</title><style>.edge>path:hover{stroke-width:8}</style>
<path fill="none" stroke="black" d="M63.07,-252.57C72.42,-238.12 86.45,-217.24 100.05,-200"/>
</g>
<!-- inventario_new&#45;&gt;app_py -->
<g id="edge16" class="edge">
<title>inventario_new&#45;&gt;app_py</title><style>.edge>path:hover{stroke-width:8}</style>
<path fill="none" stroke="black" d="M122.2,-252.51C104.68,-238.03 86.54,-217.12 100.05,-200"/>
</g>
<!-- market&#45;&gt;app_py -->
<g id="edge18" class="edge">
<title>market&#45;&gt;app_py</title><style>.edge>path:hover{stroke-width:8}</style>
<path fill="none" stroke="black" d="M330.14,-252.55C373.78,-216.22 469.45,-135.24 464.05,-128"/>
<path fill="none" stroke="black" d="M464.05,-126C413.5,-57.54 300.45,-155.62 280.05,-73"/>
</g>
<!-- marketplace -->
<g id="node10" class="node">
<title>marketplace</title><style>.edge>path:hover{stroke-width:8}</style>
<ellipse fill="#3b76ce" stroke="black" cx="421.05" cy="-415" rx="41.64" ry="18"/>
<text xml:space="preserve" text-anchor="middle" x="421.05" y="-411.5" font-family="Helvetica,sans-Serif" font-size="10.00" fill="#ffffff">marketplace</text>
</g>
<!-- marketplace&#45;&gt;app -->
<g id="edge19" class="edge">
<title>marketplace&#45;&gt;app</title><style>.edge>path:hover{stroke-width:8}</style>
<path fill="none" stroke="black" d="M398.11,-399.67C383.13,-390.3 363.24,-377.87 346.05,-367.12"/>
<polygon fill="#3b76ce" stroke="black" points="347.92,-364.17 337.58,-361.83 344.21,-370.1 347.92,-364.17"/>
</g>
<!-- marketplace&#45;&gt;app_py -->
<g id="edge20" class="edge">
<title>marketplace&#45;&gt;app_py</title><style>.edge>path:hover{stroke-width:8}</style>
<path fill="none" stroke="black" d="M456.15,-404.77C484.33,-395.07 520.95,-376.56 532.05,-344"/>
<path fill="none" stroke="black" d="M532.05,-342C552.4,-282.26 542.5,-262.24 532.05,-200"/>
</g>
<!-- marketplace_models&#45;&gt;marketplace_routes -->
<g id="edge21" class="edge">
<title>marketplace_models&#45;&gt;marketplace_routes</title><style>.edge>path:hover{stroke-width:8}</style>
<path fill="none" stroke="black" d="M280.05,-180.7C280.05,-173.41 280.05,-164.73 280.05,-156.54"/>
<polygon fill="blue" stroke="black" points="283.55,-156.62 280.05,-146.62 276.55,-156.62 283.55,-156.62"/>
</g>
<!-- marketplace_routes&#45;&gt;app_py -->
<g id="edge23" class="edge">
<title>marketplace_routes&#45;&gt;app_py</title><style>.edge>path:hover{stroke-width:8}</style>
<path fill="none" stroke="black" d="M282.13,-108.56C282.87,-98.1 282.92,-84.61 280.05,-73"/>
</g>
<!-- models -->
<g id="node13" class="node">
<title>models</title><style>.edge>path:hover{stroke-width:8}</style>
<ellipse fill="#3f10f9" stroke="black" cx="331.05" cy="-487" rx="28.56" ry="18"/>
<text xml:space="preserve" text-anchor="middle" x="331.05" y="-483.5" font-family="Helvetica,sans-Serif" font-size="10.00" fill="#ffffff">models</text>
</g>
<!-- models&#45;&gt;app -->
<g id="edge24" class="edge">
<title>models&#45;&gt;app</title><style>.edge>path:hover{stroke-width:8}</style>
<path fill="none" stroke="black" d="M330.05,-414C326.06,-400.19 321.49,-384.89 317.63,-372.12"/>
<polygon fill="#3f10f9" stroke="black" points="321.02,-371.23 314.76,-362.68 314.32,-373.27 321.02,-371.23"/>
</g>
<!-- models&#45;&gt;app_py -->
<g id="edge25" class="edge">
<title>models&#45;&gt;app_py</title><style>.edge>path:hover{stroke-width:8}</style>
<path fill="none" stroke="black" d="M532.05,-414C547.48,-386.98 519.86,-372.62 532.05,-344"/>
</g>
<!-- models&#45;&gt;auth -->
<g id="edge26" class="edge">
<title>models&#45;&gt;auth</title><style>.edge>path:hover{stroke-width:8}</style>
<path fill="none" stroke="black" d="M318.4,-470.46C311.07,-461.46 301.68,-449.93 293.43,-439.81"/>
<polygon fill="#3f10f9" stroke="black" points="296.26,-437.73 287.23,-432.19 290.83,-442.15 296.26,-437.73"/>
</g>
<!-- models&#45;&gt;equipos_new -->
<g id="edge27" class="edge">
<title>models&#45;&gt;equipos_new</title><style>.edge>path:hover{stroke-width:8}</style>
<path fill="none" stroke="black" d="M147.05,-342C127.26,-325.96 104.29,-308.99 85.89,-295.78"/>
<polygon fill="#3f10f9" stroke="black" points="88.13,-293.07 77.96,-290.11 84.06,-298.77 88.13,-293.07"/>
<path fill="none" stroke="black" d="M330.05,-414C326.81,-402.79 320.23,-402.69 310.05,-397 243.54,-359.85 206.22,-391.97 147.05,-344"/>
<path fill="none" stroke="black" d="M333.3,-468.65C334.59,-454.26 335.07,-433.4 330.05,-416"/>
</g>
<!-- models&#45;&gt;inventario_new -->
<g id="edge28" class="edge">
<title>models&#45;&gt;inventario_new</title><style>.edge>path:hover{stroke-width:8}</style>
<path fill="none" stroke="black" d="M147.05,-342C135.09,-332.3 134.97,-315.06 137.9,-300.11"/>
<polygon fill="#3f10f9" stroke="black" points="141.2,-301.31 140.22,-290.76 134.41,-299.62 141.2,-301.31"/>
</g>
<!-- models&#45;&gt;market -->
<g id="edge29" class="edge">
<title>models&#45;&gt;market</title><style>.edge>path:hover{stroke-width:8}</style>
<path fill="none" stroke="black" d="M330.05,-414C317.66,-371.12 397.33,-388.38 402.05,-344"/>
<path fill="none" stroke="black" d="M402.05,-342C405.19,-312.46 374.07,-293.77 346.99,-283.2"/>
<polygon fill="#3f10f9" stroke="black" points="348.53,-280.04 337.93,-279.93 346.15,-286.62 348.53,-280.04"/>
</g>
<!-- models&#45;&gt;supplier_auth -->
<g id="edge30" class="edge">
<title>models&#45;&gt;supplier_auth</title><style>.edge>path:hover{stroke-width:8}</style>
<path fill="none" stroke="black" d="M359.97,-486.81C407.45,-486.31 499.87,-477.15 532.05,-416"/>
<path fill="none" stroke="black" d="M532.05,-414C537.73,-403.2 503.26,-337.34 482.31,-299.22"/>
<polygon fill="#3f10f9" stroke="black" points="485.44,-297.65 477.54,-290.59 479.32,-301.04 485.44,-297.65"/>
</g>
<!-- models&#45;&gt;supplier_portal -->
<g id="edge31" class="edge">
<title>models&#45;&gt;supplier_portal</title><style>.edge>path:hover{stroke-width:8}</style>
<path fill="none" stroke="black" d="M402.05,-342C406.33,-301.78 403.6,-289.49 421.05,-253 425.65,-243.37 432.34,-233.95 439.08,-225.79"/>
<polygon fill="#3f10f9" stroke="black" points="441.67,-228.15 445.6,-218.31 436.39,-223.55 441.67,-228.15"/>
</g>
<!-- supplier_auth&#45;&gt;app_py -->
<g id="edge33" class="edge">
<title>supplier_auth&#45;&gt;app_py</title><style>.edge>path:hover{stroke-width:8}</style>
<path fill="none" stroke="black" d="M499.37,-252.67C517.48,-240.34 535.76,-222.08 532.05,-200"/>
<path fill="none" stroke="black" d="M532.05,-198C524.86,-155.23 489.81,-162.89 464.05,-128"/>
</g>
<!-- supplier_auth&#45;&gt;supplier_portal -->
<g id="edge34" class="edge">
<title>supplier_auth&#45;&gt;supplier_portal</title><style>.edge>path:hover{stroke-width:8}</style>
<path fill="none" stroke="black" d="M466.31,-252.7C465.99,-245.41 465.62,-236.73 465.27,-228.54"/>
<polygon fill="blue" stroke="black" points="468.77,-228.46 464.85,-218.62 461.78,-228.76 468.77,-228.46"/>
</g>
<!-- supplier_portal&#45;&gt;app_py -->
<g id="edge36" class="edge">
<title>supplier_portal&#45;&gt;app_py</title><style>.edge>path:hover{stroke-width:8}</style>
<path fill="none" stroke="black" d="M469.38,-180.66C472.97,-165.28 475.25,-143 464.05,-128"/>
</g>
</g>
</svg>
